<?xml version="1.0" encoding="UTF-8" standalone="no"?>
<!DOCTYPE svg PUBLIC "-//W3C//DTD SVG 1.1//EN"
 "http://www.w3.org/Graphics/SVG/1.1/DTD/svg11.dtd">
<!-- Generated by graphviz version 2.38.0 (20140413.2041)
 -->
<!-- Title: switches Pages: 1 -->
<svg width="298pt" height="599pt"
 viewBox="0.00 0.00 298.00 599.00" xmlns="http://www.w3.org/2000/svg" xmlns:xlink="http://www.w3.org/1999/xlink">
<g id="graph0" class="graph" transform="scale(1 1) rotate(0) translate(4 595)">
<title>switches</title>
<polygon fill="white" stroke="none" points="-4,4 -4,-595 294,-595 294,4 -4,4"/>
<text text-anchor="middle" x="145" y="-16.8" font-family="consolas" font-size="9.00">Sample</text>
<text text-anchor="middle" x="145" y="-6.8" font-family="consolas" font-size="9.00">(c)</text>
<!-- ctx_app -->
<g id="node1" class="node"><title>ctx_app</title>
<g id="a_node1"><a xlink:href="https://client.sample.com/Citrix/XenApp" xlink:title="Citrix XenApp" target="_blank">
<polygon fill="#ffffff" stroke="none" points="162.5,-360 97.5,-360 97.5,-322 162.5,-322 162.5,-360"/>
<image xlink:href="graph/server_multiple.png" width="48px" height="38px" preserveAspectRatio="xMinYMin meet" x="106" y="-360"/>
<text text-anchor="middle" x="130" y="-324.4" font-family="consolas" font-size="7.00">Citrix XenApp</text>
</a>
</g>
</g>
<!-- db -->
<g id="node2" class="node"><title>db</title>
<polygon fill="#ffffff" stroke="none" points="213,-138 157,-138 157,-100 213,-100 213,-138"/>
<image xlink:href="graph/server_database.png" width="48px" height="38px" preserveAspectRatio="xMinYMin meet" x="161" y="-138"/>
<text text-anchor="middle" x="185" y="-102.4" font-family="consolas" font-size="7.00">Oracle 11g</text>
</g>
<!-- ctx_app&#45;&#45;db -->
<g id="edge5" class="edge"><title>ctx_app&#45;&#45;db</title>
<path fill="none" stroke="#ffbb00" d="M142.188,-321.718C152.632,-306.052 166,-286 166,-286 166,-286 178.006,-181.104 182.93,-138.081"/>
</g>
<!-- rfw -->
<g id="node3" class="node"><title>rfw</title>
<g id="a_node3"><a xlink:href="https://report.sample.com/status" xlink:title="C138MEGOTPWEB.sample.local&#10;C588YRTOTPWEB.sample.local&#10;C736SCPOTPWEB.sample.local&#10;C917AZEOTPWEB.sample.local" target="_blank">
<polygon fill="#ffffff" stroke="none" points="157,-286 103,-286 103,-248 157,-248 157,-286"/>
<image xlink:href="graph/server_web.png" width="48px" height="38px" preserveAspectRatio="xMinYMin meet" x="106" y="-286"/>
<text text-anchor="middle" x="130" y="-250.4" font-family="consolas" font-size="7.00">Reporting</text>
</a>
</g>
</g>
<!-- ctx_app&#45;&#45;rfw -->
<g id="edge6" class="edge"><title>ctx_app&#45;&#45;rfw</title>
<path fill="none" stroke="#ffbb00" d="M130,-321.831C130,-311 130,-297.288 130,-286.413"/>
</g>
<!-- ad -->
<g id="node4" class="node"><title>ad</title>
<g id="a_node4"><a xlink:title="C252QHK.sample.local&#10;C383VBH.sample.local&#10;C252QHK.sample.local">
<polygon fill="#ffffff" stroke="none" points="85,-286 31,-286 31,-248 85,-248 85,-286"/>
<image xlink:href="graph/server_directory.png" width="48px" height="38px" preserveAspectRatio="xMinYMin meet" x="34" y="-286"/>
<text text-anchor="middle" x="58" y="-250.4" font-family="consolas" font-size="7.00">AD</text>
</a>
</g>
</g>
<!-- ctx_app&#45;&#45;ad -->
<g id="edge8" class="edge"><title>ctx_app&#45;&#45;ad</title>
<path fill="none" stroke="#ffbb00" d="M111.831,-321.831C101,-311 87.2876,-297.288 76.4133,-286.413"/>
</g>
<!-- bknweb -->
<g id="node6" class="node"><title>bknweb</title>
<g id="a_node6"><a xlink:title="C204PGHOTPWEB.sample.local&#10;C244JGNOTPWEB.sample.local">
<polygon fill="#ffffff" stroke="none" points="119,-212 55,-212 55,-174 119,-174 119,-212"/>
<image xlink:href="graph/server_web.png" width="48px" height="38px" preserveAspectRatio="xMinYMin meet" x="63" y="-212"/>
<text text-anchor="middle" x="87" y="-176.4" font-family="consolas" font-size="7.00">Backend Web</text>
</a>
</g>
</g>
<!-- ctx_app&#45;&#45;bknweb -->
<g id="edge20" class="edge"><title>ctx_app&#45;&#45;bknweb</title>
<path fill="none" stroke="#ffbb00" d="M97.3034,-323.652C65.5162,-307.758 22,-286 22,-286 22,-286 22,-248 22,-248 22,-248 46.137,-227.948 64.994,-212.282"/>
</g>
<!-- inet -->
<g id="node9" class="node"><title>inet</title>
<g id="a_node9"><a xlink:href="https://analysis.sample.com/reporting/Reports?op=ping" xlink:title="Reporting" target="_blank">
<polygon fill="#ffffff" stroke="none" points="267,-286 213,-286 213,-248 267,-248 267,-286"/>
<image xlink:href="graph/server_web.png" width="48px" height="38px" preserveAspectRatio="xMinYMin meet" x="216" y="-286"/>
<text text-anchor="middle" x="240" y="-250.4" font-family="consolas" font-size="7.00">Reporting</text>
</a>
</g>
</g>
<!-- ctx_app&#45;&#45;inet -->
<g id="edge7" class="edge"><title>ctx_app&#45;&#45;inet</title>
<path fill="none" stroke="#bbff00" d="M157.758,-321.831C174.56,-310.833 195.901,-296.865 212.632,-285.913"/>
</g>
<!-- cifs -->
<g id="node10" class="node"><title>cifs</title>
<polygon fill="#ffffff" stroke="none" points="54,-137 0,-137 0,-101 54,-101 54,-137"/>
<image xlink:href="graph/drive_network.png" width="32px" height="32px" preserveAspectRatio="xMinYMin meet" x="11" y="-135"/>
<text text-anchor="middle" x="27" y="-103.4" font-family="consolas" font-size="7.00">CIFS</text>
</g>
<!-- ctx_app&#45;&#45;cifs -->
<g id="edge9" class="edge"><title>ctx_app&#45;&#45;cifs</title>
<path fill="none" stroke="#ffbb00" d="M97.3039,-324.236C64.2455,-308.297 18,-286 18,-286 18,-286 18,-248 18,-248 18,-248 23.3296,-172.201 25.7862,-137.263"/>
</g>
<!-- nfs -->
<g id="node11" class="node"><title>nfs</title>
<polygon fill="#ffffff" stroke="none" points="212,-64 158,-64 158,-28 212,-28 212,-64"/>
<image xlink:href="graph/drive_network.png" width="32px" height="32px" preserveAspectRatio="xMinYMin meet" x="169" y="-62"/>
<text text-anchor="middle" x="185" y="-30.4" font-family="consolas" font-size="7.00">NFS</text>
</g>
<!-- db&#45;&#45;nfs -->
<g id="edge10" class="edge"><title>db&#45;&#45;nfs</title>
<path fill="none" stroke="#ffbb00" d="M185,-99.7157C185,-88.7043 185,-74.777 185,-64.0034"/>
</g>
<!-- rfw&#45;&#45;db -->
<g id="edge12" class="edge"><title>rfw&#45;&#45;db</title>
<path fill="none" stroke="#ffbb00" d="M136.855,-247.804C147.394,-219.827 167.468,-166.54 178.059,-138.425"/>
</g>
<!-- rfw&#45;&#45;bknweb -->
<g id="edge21" class="edge"><title>rfw&#45;&#45;bknweb</title>
<path fill="none" stroke="#ffbb00" d="M119.149,-247.831C112.681,-237 104.491,-223.288 97.9968,-212.413"/>
</g>
<!-- rfw&#45;&#45;cifs -->
<g id="edge11" class="edge"><title>rfw&#45;&#45;cifs</title>
<path fill="none" stroke="#ffbb00" d="M102.959,-248.617C78.4036,-232.831 46,-212 46,-212 46,-212 36.0776,-163.955 30.5738,-137.304"/>
</g>
<!-- ga -->
<g id="node5" class="node"><title>ga</title>
<g id="a_node5"><a xlink:href="https://wizard.sample.com/heap.jsp" xlink:title="GA" target="_blank">
<polygon fill="#ffffff" stroke="none" points="251,-360 197,-360 197,-322 251,-322 251,-360"/>
<image xlink:href="graph/server_web.png" width="48px" height="38px" preserveAspectRatio="xMinYMin meet" x="200" y="-360"/>
<text text-anchor="middle" x="224" y="-324.4" font-family="consolas" font-size="7.00">GA</text>
</a>
</g>
</g>
<!-- ga&#45;&#45;db -->
<g id="edge15" class="edge"><title>ga&#45;&#45;db</title>
<path fill="none" stroke="#ffbb00" d="M241.605,-321.718C256.69,-306.052 276,-286 276,-286 276,-286 290,-212 290,-212 290,-212 290,-174 290,-174 290,-174 244.24,-150.466 213.138,-134.471"/>
</g>
<!-- ga&#45;&#45;rfw -->
<g id="edge16" class="edge"><title>ga&#45;&#45;rfw</title>
<path fill="none" stroke="#ffbb00" d="M200.28,-321.831C186.03,-310.917 167.961,-297.076 153.713,-286.163"/>
</g>
<!-- ga&#45;&#45;inet -->
<g id="edge17" class="edge"><title>ga&#45;&#45;inet</title>
<path fill="none" stroke="#ffbb00" d="M228.037,-321.831C230.444,-311 233.492,-297.288 235.908,-286.413"/>
</g>
<!-- bknweb&#45;&#45;db -->
<g id="edge19" class="edge"><title>bknweb&#45;&#45;db</title>
<path fill="none" stroke="#ffbb00" d="M111.73,-173.831C126.586,-162.917 145.424,-149.076 160.278,-138.163"/>
</g>
<!-- bknweb&#45;&#45;cifs -->
<g id="edge18" class="edge"><title>bknweb&#45;&#45;cifs</title>
<path fill="none" stroke="#ffbb00" d="M71.8595,-173.831C62.5556,-162.667 50.7008,-148.441 41.5148,-137.418"/>
</g>
<!-- ctx_web -->
<g id="node7" class="node"><title>ctx_web</title>
<polygon fill="#ffffff" stroke="none" points="176.5,-434 89.5,-434 89.5,-396 176.5,-396 176.5,-434"/>
<image xlink:href="graph/server_web.png" width="48px" height="38px" preserveAspectRatio="xMinYMin meet" x="109" y="-434"/>
<text text-anchor="middle" x="133" y="-398.4" font-family="consolas" font-size="7.00">Citrix Web Interface</text>
</g>
<!-- ctx_web&#45;&#45;ctx_app -->
<g id="edge4" class="edge"><title>ctx_web&#45;&#45;ctx_app</title>
<path fill="none" stroke="#00bbff" d="M132.243,-395.831C131.792,-385 131.22,-371.288 130.767,-360.413"/>
</g>
<!-- netsclr -->
<g id="node8" class="node"><title>netsclr</title>
<polygon fill="#ffffff" stroke="none" points="174,-508 100,-508 100,-470 174,-470 174,-508"/>
<image xlink:href="graph/server_web_secure.png" width="48px" height="38px" preserveAspectRatio="xMinYMin meet" x="113" y="-508"/>
<text text-anchor="middle" x="137" y="-472.4" font-family="consolas" font-size="7.00">Citrix Netscaler</text>
</g>
<!-- netsclr&#45;&#45;ctx_web -->
<g id="edge3" class="edge"><title>netsclr&#45;&#45;ctx_web</title>
<path fill="none" stroke="#00bbff" d="M135.991,-469.831C135.389,-459 134.627,-445.288 134.023,-434.413"/>
</g>
<!-- inet&#45;&#45;db -->
<g id="edge14" class="edge"><title>inet&#45;&#45;db</title>
<path fill="none" stroke="#ffbb00" d="M252.188,-247.718C262.632,-232.052 276,-212 276,-212 276,-212 276,-174 276,-174 276,-174 240.007,-152.642 213.294,-136.79"/>
</g>
<!-- nfs_inet -->
<g id="node12" class="node"><title>nfs_inet</title>
<polygon fill="#ffffff" stroke="none" points="267,-211 213,-211 213,-175 267,-175 267,-211"/>
<image xlink:href="graph/drive_network.png" width="32px" height="32px" preserveAspectRatio="xMinYMin meet" x="224" y="-209"/>
<text text-anchor="middle" x="240" y="-177.4" font-family="consolas" font-size="7.00">NFS</text>
</g>
<!-- inet&#45;&#45;nfs_inet -->
<g id="edge13" class="edge"><title>inet&#45;&#45;nfs_inet</title>
<path fill="none" stroke="#ffbb00" d="M240,-247.831C240,-236.667 240,-222.441 240,-211.418"/>
</g>
<!-- cloud -->
<g id="node13" class="node"><title>cloud</title>
<polygon fill="#ffffff" stroke="none" points="198,-591 144,-591 144,-544 198,-544 198,-591"/>
<image xlink:href="graph/cloud.png" width="54px" height="47px" preserveAspectRatio="xMinYMin meet" x="144" y="-591"/>
<text text-anchor="middle" x="171" y="-546.4" font-family="consolas" font-size="7.00">Platform</text>
</g>
<!-- cloud&#45;&#45;ga -->
<g id="edge2" class="edge"><title>cloud&#45;&#45;ga</title>
<path fill="none" stroke="#00bbff" d="M176.374,-543.738C186.927,-499.037 210.164,-400.609 219.743,-360.031"/>
</g>
<!-- cloud&#45;&#45;netsclr -->
<g id="edge1" class="edge"><title>cloud&#45;&#45;netsclr</title>
<path fill="none" stroke="#00bbff" d="M160.983,-543.961C155.89,-532.502 149.785,-518.766 145.009,-508.02"/>
</g>
</g>
</svg>
